<?xml version="1.0" encoding="UTF-8" standalone="no"?>
<svg
   xmlns:dc="http://purl.org/dc/elements/1.1/"
   xmlns:cc="http://creativecommons.org/ns#"
   xmlns:rdf="http://www.w3.org/1999/02/22-rdf-syntax-ns#"
   xmlns:svg="http://www.w3.org/2000/svg"
   xmlns="http://www.w3.org/2000/svg"
   viewBox="0 0 661.02667 200.17332"
   height="200.17332"
   width="661.02667"
   xml:space="preserve"
   id="svg2"
   version="1.1"><metadata
     id="metadata8"><rdf:RDF><cc:Work
         rdf:about=""><dc:format>image/svg+xml</dc:format><dc:type
           rdf:resource="http://purl.org/dc/dcmitype/StillImage" /></cc:Work></rdf:RDF></metadata><defs
     id="defs6" /><g
     transform="matrix(1.3333333,0,0,-1.3333333,0,200.17333)"
     id="g10"><g
       transform="scale(0.1)"
       id="g12"><path
         id="path14"
         style="fill:#173a79;fill-opacity:1;fill-rule:nonzero;stroke:none"
         d="M 4957.71,0 H 0 V 1501.25 H 4957.71 V 0" /><path
         id="path16"
         style="fill:#ffffff;fill-opacity:1;fill-rule:nonzero;stroke:none"
         d="m 659.277,763.75 c -134.316,-351.039 41.36,-635.648 392.433,-635.648 351.05,0 744.56,284.609 878.91,635.648 134.31,351.06 -41.38,635.68 -392.43,635.68 -351.06,0 -744.573,-284.62 -878.913,-635.68" /><path
         id="path18"
         style="fill:#173a79;fill-opacity:1;fill-rule:nonzero;stroke:none"
         d="m 913.695,275.941 c 472.335,269.879 483.905,558.004 357.975,724.439 143.94,-40.458 170.93,-256.388 355.37,-206.927 184.44,49.5 184.42,107.988 283.4,121.485 -67.47,53.968 -125.94,62.914 -148.44,49.437 31.47,72.025 148.44,157.465 229.41,148.455 80.99,-8.96 292.69,-622.791 -143.67,-649.76 -197.86,16.66 -222.55,128.629 -333.17,64.996 36.02,80.95 211.44,121.446 283.42,121.446 -297.82,89.621 -368.95,-215.481 -884.295,-373.571" /><path
         id="path20"
         style="fill:#ffffff;fill-opacity:1;fill-rule:nonzero;stroke:none"
         d="m 1967.05,774.176 c 12.52,48.89 30.87,93.679 55.16,134.437 24.26,40.758 53.52,75.52 87.83,104.527 34.31,28.82 73.06,51.48 116.33,67.77 43.32,16.26 90.17,24.42 140.7,24.42 17.1,0 33.29,-0.44 48.55,-1.15 15.32,-0.88 30.11,-2.52 44.58,-4.91 14.51,-2.46 29,-6.11 43.64,-11.08 14.63,-4.82 30.85,-10.9 48.5,-18.27 -5.52,-27.74 -14.96,-55.19 -28.51,-82.498 -13.49,-27.301 -30.5,-53.992 -51,-80.051 -12.59,4.887 -24.02,8.785 -34.28,11.598 -10.31,2.84 -20.12,5.101 -29.41,6.719 -9.4,1.656 -18.72,2.636 -27.98,3.05 -9.22,0.442 -19.2,0.657 -29.8,0.657 -39.09,0 -74.45,-11.645 -106.05,-34.805 -31.6,-23.266 -54.69,-63.367 -69.27,-120.414 -7.71,-30.094 -10.24,-55.192 -7.67,-75.145 2.7,-20.015 8.84,-35.672 18.55,-47.097 9.74,-11.438 22.27,-19.571 37.71,-24.383 15.45,-4.934 32.53,-7.356 51.32,-7.356 23.65,0 44.69,2.032 63.3,6.094 18.53,4.121 40.77,10.637 66.68,19.551 8.21,-22 12.92,-46.68 14.11,-73.945 1.13,-27.254 -2.74,-58.477 -11.67,-93.454 -41.3,-14.703 -77.9,-24.043 -109.9,-28.089 -32.01,-4.063 -63.48,-6.114 -94.42,-6.114 -52.16,0 -96.16,7.742 -132.15,23.203 -35.99,15.438 -63.92,37.618 -83.75,66.602 -19.99,28.918 -31.66,63.523 -35.19,103.887 -3.53,40.293 1.15,85.742 14.09,136.246" /><path
         id="path22"
         style="fill:#ffffff;fill-opacity:1;fill-rule:nonzero;stroke:none"
         d="m 2750.45,596.953 c 7.35,0 18.14,0.813 32.47,2.488 14.21,1.633 24.82,3.227 31.75,4.883 l 34.37,134.438 h -69.65 c -28.51,0 -54.08,-6.145 -76.79,-18.34 -22.65,-12.207 -36.8,-29.328 -42.43,-51.352 -4.14,-16.316 -3.77,-29.136 1.18,-38.445 4.95,-9.375 12.26,-16.555 21.98,-21.414 9.77,-4.887 20.79,-8.137 32.92,-9.77 12.22,-1.675 23.65,-2.488 34.2,-2.488 m -270.86,68.496 c 10.18,39.864 27.24,72.879 50.96,98.953 23.82,26.02 51.16,46.782 81.95,62.328 30.82,15.438 63.33,26.254 97.5,32.364 34.15,6.187 66.67,9.133 97.65,9.133 h 74.51 c 2.97,14.742 2.05,26.976 -2.75,36.699 -4.85,9.769 -12.32,17.359 -22.34,22.637 -10.1,5.281 -21.79,8.941 -35.05,10.992 -13.39,2.027 -27.37,3.008 -42.04,3.008 -19.52,0 -42.96,-2.223 -70.16,-6.696 -27.19,-4.445 -55.93,-11.621 -86.11,-21.39 -3.79,13.867 -6.87,26.496 -9.29,37.918 -2.37,11.32 -3.49,22.964 -3.27,34.871 0.13,11.687 1.22,23.924 3.23,36.594 2.05,12.62 5.1,27.08 9.33,43.39 42.39,13.04 83.79,22.73 124.17,29.36 40.36,6.47 76.01,9.72 106.94,9.72 42.43,0 79.41,-5.02 111.01,-15.26 31.63,-10.17 56.72,-25.87 75.35,-47.02 18.62,-21.19 30.22,-48.323 34.82,-81.292 4.6,-33.02 1.05,-72.317 -10.64,-117.93 l -91.55,-358.066 c -33.32,-8.981 -73.04,-17.973 -119.32,-26.864 -46.32,-8.968 -93.95,-13.429 -142.77,-13.429 -42.39,0 -80.27,3.832 -113.74,11.551 -33.47,7.73 -60.62,20.199 -81.51,37.289 -20.85,17.058 -34.87,39.734 -41.93,67.859 -7.05,28.047 -5.39,62.52 5.05,103.281" /><path
         id="path24"
         style="fill:#ffffff;fill-opacity:1;fill-rule:nonzero;stroke:none"
         d="m 3313.74,764.402 c 3.85,-0.824 8.78,-1.39 14.8,-1.828 5.98,-0.433 11.02,-0.609 15.07,-0.609 28.56,0 53.82,7.152 75.73,21.39 22,14.2 37.4,38.536 46.14,72.704 7.5,29.332 4.12,51.921 -10.15,67.82 -14.27,15.894 -34.81,23.875 -61.74,23.875 h -14.06 c -6.09,0 -12.52,-0.481 -19.26,-1.266 z m -118.8,323.788 c 38.89,5.76 78.49,10.01 118.75,12.86 40.28,2.89 78.68,4.34 115.34,4.34 37.48,0 73.2,-3.5 107.33,-10.39 34.08,-6.98 63.04,-19.59 86.9,-37.91 23.81,-18.38 40.32,-43.61 49.61,-75.774 9.28,-32.168 7.41,-73.945 -5.72,-125.257 -11.92,-46.469 -29.83,-85.5 -53.88,-117.321 -24.03,-31.765 -51.55,-57.461 -82.6,-77 -31.12,-19.582 -64.25,-33.574 -99.4,-42.148 -35.24,-8.574 -69.87,-12.844 -104.11,-12.844 -13.88,0 -25.55,0.434 -35.1,1.223 -9.64,0.832 -15.5,1.609 -17.71,2.48 L 3235.9,460.121 c -22.28,-4.101 -41.86,-6.723 -58.89,-7.98 -17.01,-1.18 -32.05,-1.789 -45.1,-1.789 -13.82,0 -28.5,0.609 -44.13,1.789 -15.58,1.257 -33.43,3.879 -53.52,7.98 l 160.68,628.069" /><path
         id="path26"
         style="fill:#ffffff;fill-opacity:1;fill-rule:nonzero;stroke:none"
         d="m 4037,1102.89 c 35.8,0 70.93,-2.97 105.19,-9.12 34.3,-6.13 63.41,-18.97 87.31,-38.53 23.9,-19.54 40.34,-47.65 49.32,-84.283 8.95,-36.637 5.7,-85.176 -9.71,-145.492 l -93.47,-365.344 c -22.25,-4.101 -42.04,-6.723 -59.49,-7.941 -17.42,-1.219 -32.64,-1.828 -45.73,-1.828 -13.8,0 -29.16,0.609 -45.92,1.828 -16.79,1.218 -35.31,3.84 -55.41,7.941 l 87.84,343.363 c 11.09,43.219 10.83,74.161 -0.68,92.899 -11.58,18.75 -33.93,28.105 -67.36,28.105 -8.96,0 -18.74,-0.804 -29.33,-2.398 -10.6,-1.656 -17.32,-3.336 -20.22,-4.949 l -116.9,-457.02 c -22.29,-4.101 -42.06,-6.723 -59.43,-7.941 -17.49,-1.219 -32.68,-1.828 -45.75,-1.828 -13.8,0 -29.13,0.609 -45.94,1.828 -16.77,1.218 -35.26,3.84 -55.39,7.941 l 153.5,600.009 c 31,9.83 68.04,19.4 111.23,28.67 43.07,9.4 95.27,14.09 156.34,14.09" /></g></g></svg>